<?xml version="1.0" encoding="utf-8"?>
<!-- Generator: Adobe Illustrator 16.0.0, SVG Export Plug-In . SVG Version: 6.00 Build 0)  -->
<!DOCTYPE svg PUBLIC "-//W3C//DTD SVG 1.1//EN" "http://www.w3.org/Graphics/SVG/1.1/DTD/svg11.dtd">
<svg version="1.1" id="fluxograma" xmlns="http://www.w3.org/2000/svg" xmlns:xlink="http://www.w3.org/1999/xlink" x="0px" y="0px"
	 width="709.837px" height="384.613px" viewBox="0 0 709.837 384.613" enable-background="new 0 0 709.837 384.613"
	 xml:space="preserve">
<g>
	<path fill="#FFFFFF" stroke="#1A140F" stroke-linecap="round" stroke-linejoin="round" stroke-miterlimit="30" d="M146.155,64.313
		c0,7.696-6.24,13.935-13.936,13.935H14.435C6.739,78.248,0.5,72.009,0.5,64.313V14.435C0.5,6.739,6.739,0.5,14.435,0.5h117.784
		c7.696,0,13.936,6.239,13.936,13.935V64.313z"/>
	<g>
		<path fill="#1A140F" d="M55.412,43.708V32.07h1.54v11.638H55.412z"/>
		<path fill="#1A140F" d="M59.485,43.708v-8.431h1.286v1.199c0.619-0.926,1.513-1.389,2.683-1.389c0.508,0,0.975,0.091,1.401,0.273
			c0.426,0.183,0.745,0.422,0.957,0.719c0.211,0.296,0.36,0.648,0.444,1.056c0.053,0.265,0.08,0.728,0.08,1.389v5.184h-1.429V38.58
			c0-0.582-0.056-1.017-0.167-1.306c-0.111-0.289-0.309-0.519-0.591-0.691c-0.283-0.172-0.615-0.258-0.997-0.258
			c-0.608,0-1.134,0.193-1.576,0.58s-0.663,1.119-0.663,2.199v4.604H59.485z"/>
		<path fill="#1A140F" d="M68.956,34.23l1.056-2.223h1.874l-1.747,2.223H68.956z M69.027,43.708v-8.431h1.429v8.431H69.027z"/>
		<path fill="#1A140F" d="M78.545,40.621l1.405,0.182c-0.154,0.969-0.547,1.727-1.179,2.274c-0.632,0.548-1.409,0.822-2.33,0.822
			c-1.154,0-2.081-0.377-2.782-1.131c-0.701-0.754-1.052-1.835-1.052-3.243c0-0.91,0.151-1.707,0.452-2.39
			c0.302-0.683,0.761-1.195,1.377-1.536s1.288-0.512,2.013-0.512c0.916,0,1.664,0.231,2.247,0.694
			c0.582,0.463,0.955,1.121,1.119,1.973l-1.389,0.214c-0.132-0.566-0.367-0.992-0.703-1.278c-0.336-0.286-0.742-0.429-1.219-0.429
			c-0.72,0-1.304,0.258-1.754,0.774c-0.45,0.516-0.675,1.333-0.675,2.449c0,1.132,0.217,1.956,0.651,2.469
			c0.434,0.513,1,0.77,1.699,0.77c0.561,0,1.029-0.172,1.405-0.516C78.207,41.864,78.445,41.335,78.545,40.621z"/>
		<path fill="#1A140F" d="M81.181,33.714V32.07h1.429v1.644H81.181z M81.181,43.708v-8.431h1.429v8.431H81.181z"/>
		<path fill="#1A140F" d="M84.253,39.493c0-1.561,0.434-2.718,1.302-3.469c0.725-0.625,1.609-0.937,2.651-0.937
			c1.159,0,2.106,0.379,2.842,1.139c0.735,0.759,1.104,1.809,1.104,3.147c0,1.085-0.163,1.938-0.488,2.56
			c-0.326,0.622-0.799,1.105-1.421,1.449c-0.622,0.344-1.3,0.516-2.036,0.516c-1.18,0-2.134-0.378-2.862-1.135
			S84.253,40.917,84.253,39.493z M85.722,39.493c0,1.08,0.236,1.888,0.707,2.425c0.471,0.537,1.064,0.806,1.778,0.806
			c0.709,0,1.299-0.27,1.771-0.81c0.471-0.54,0.707-1.363,0.707-2.469c0-1.042-0.237-1.833-0.71-2.37
			c-0.474-0.537-1.063-0.806-1.767-0.806c-0.714,0-1.307,0.267-1.778,0.802C85.958,37.606,85.722,38.414,85.722,39.493z"/>
	</g>
	<line fill="none" stroke="#1A140F" stroke-miterlimit="10" x1="146.282" y1="39.375" x2="243.713" y2="39.375"/>
	<polygon stroke="#1A140F" stroke-miterlimit="10" points="242.359,50.173 242.263,28.575 261.015,39.291 	"/>
	<polygon fill="#FFFFFF" stroke="#1A140F" stroke-miterlimit="10" points="397.863,78.248 252.208,78.248 275.979,0.5 421.633,0.5 	
		"/>
	<g>
		<path fill="#1A140F" d="M314.208,33.954V22.315h1.58l6.113,9.138v-9.138h1.477v11.638h-1.58l-6.113-9.146v9.146H314.208z"/>
		<path fill="#1A140F" d="M325.25,29.738c0-1.561,0.434-2.718,1.302-3.469c0.725-0.625,1.609-0.937,2.651-0.937
			c1.159,0,2.106,0.379,2.842,1.139c0.735,0.759,1.104,1.809,1.104,3.147c0,1.085-0.163,1.938-0.488,2.56
			c-0.326,0.622-0.799,1.105-1.421,1.449c-0.622,0.344-1.3,0.516-2.036,0.516c-1.18,0-2.134-0.378-2.862-1.135
			S325.25,31.162,325.25,29.738z M326.719,29.738c0,1.08,0.236,1.888,0.707,2.425c0.471,0.537,1.064,0.806,1.778,0.806
			c0.709,0,1.299-0.27,1.771-0.81c0.471-0.54,0.707-1.363,0.707-2.469c0-1.042-0.237-1.833-0.71-2.37
			c-0.474-0.537-1.063-0.806-1.767-0.806c-0.714,0-1.307,0.267-1.778,0.802C326.955,27.852,326.719,28.659,326.719,29.738z"/>
		<path fill="#1A140F" d="M337.944,32.675l0.207,1.262c-0.402,0.085-0.762,0.127-1.08,0.127c-0.519,0-0.921-0.083-1.207-0.246
			c-0.286-0.164-0.487-0.38-0.604-0.647c-0.116-0.268-0.175-0.83-0.175-1.687v-4.851h-1.048v-1.111h1.048v-2.088l1.421-0.857v2.945
			h1.437v1.111h-1.437v4.93c0,0.408,0.025,0.67,0.075,0.786s0.132,0.209,0.246,0.278s0.276,0.103,0.488,0.103
			C337.476,32.731,337.685,32.712,337.944,32.675z"/>
		<path fill="#1A140F" d="M344.843,32.914c-0.529,0.45-1.039,0.768-1.528,0.953s-1.015,0.278-1.576,0.278
			c-0.926,0-1.638-0.226-2.136-0.679s-0.746-1.031-0.746-1.734c0-0.413,0.094-0.79,0.282-1.131s0.434-0.615,0.738-0.822
			s0.647-0.362,1.028-0.468c0.28-0.074,0.704-0.146,1.27-0.214c1.154-0.138,2.003-0.302,2.548-0.492
			c0.005-0.196,0.008-0.32,0.008-0.373c0-0.582-0.135-0.992-0.405-1.23c-0.365-0.323-0.908-0.484-1.627-0.484
			c-0.672,0-1.168,0.118-1.488,0.353c-0.32,0.236-0.557,0.652-0.71,1.25l-1.397-0.19c0.127-0.598,0.336-1.081,0.627-1.449
			c0.291-0.368,0.711-0.651,1.262-0.85c0.55-0.198,1.188-0.297,1.913-0.297c0.72,0,1.305,0.084,1.754,0.254s0.781,0.382,0.992,0.639
			c0.212,0.256,0.36,0.581,0.445,0.972c0.047,0.244,0.071,0.683,0.071,1.318v1.905c0,1.329,0.03,2.168,0.091,2.521
			c0.061,0.352,0.181,0.689,0.361,1.012h-1.493C344.98,33.657,344.885,33.311,344.843,32.914z M344.724,29.722
			c-0.519,0.212-1.297,0.392-2.334,0.54c-0.587,0.084-1.003,0.18-1.247,0.286c-0.243,0.106-0.431,0.261-0.563,0.464
			c-0.132,0.204-0.198,0.43-0.198,0.679c0,0.381,0.144,0.699,0.433,0.953c0.288,0.254,0.71,0.381,1.266,0.381
			c0.55,0,1.04-0.121,1.469-0.361s0.743-0.57,0.944-0.988c0.154-0.323,0.23-0.799,0.23-1.429V29.722z"/>
		<path fill="#1A140F" d="M357.886,33.954h-1.429v-9.105c-0.344,0.328-0.795,0.656-1.354,0.984c-0.559,0.328-1.06,0.574-1.504,0.738
			v-1.381c0.799-0.376,1.498-0.831,2.096-1.366c0.598-0.534,1.021-1.053,1.27-1.556h0.921V33.954z"/>
		<path fill="#1A140F" d="M314.208,53.463V41.825h1.58l6.113,9.138v-9.138h1.477v11.638h-1.58l-6.113-9.146v9.146H314.208z"/>
		<path fill="#1A140F" d="M325.25,49.248c0-1.561,0.434-2.718,1.302-3.469c0.725-0.625,1.609-0.937,2.651-0.937
			c1.159,0,2.106,0.379,2.842,1.139c0.735,0.759,1.104,1.809,1.104,3.147c0,1.085-0.163,1.938-0.488,2.56
			c-0.326,0.622-0.799,1.105-1.421,1.449c-0.622,0.344-1.3,0.516-2.036,0.516c-1.18,0-2.134-0.378-2.862-1.135
			S325.25,50.672,325.25,49.248z M326.719,49.248c0,1.08,0.236,1.888,0.707,2.425c0.471,0.537,1.064,0.806,1.778,0.806
			c0.709,0,1.299-0.27,1.771-0.81c0.471-0.54,0.707-1.363,0.707-2.469c0-1.042-0.237-1.833-0.71-2.37
			c-0.474-0.537-1.063-0.806-1.767-0.806c-0.714,0-1.307,0.267-1.778,0.802C326.955,47.361,326.719,48.168,326.719,49.248z"/>
		<path fill="#1A140F" d="M337.944,52.185l0.207,1.262c-0.402,0.085-0.762,0.127-1.08,0.127c-0.519,0-0.921-0.083-1.207-0.246
			c-0.286-0.164-0.487-0.38-0.604-0.647c-0.116-0.268-0.175-0.83-0.175-1.687v-4.851h-1.048v-1.111h1.048v-2.088l1.421-0.857v2.945
			h1.437v1.111h-1.437v4.93c0,0.408,0.025,0.67,0.075,0.786s0.132,0.209,0.246,0.278s0.276,0.103,0.488,0.103
			C337.476,52.241,337.685,52.222,337.944,52.185z"/>
		<path fill="#1A140F" d="M344.843,52.423c-0.529,0.45-1.039,0.768-1.528,0.953s-1.015,0.278-1.576,0.278
			c-0.926,0-1.638-0.226-2.136-0.679s-0.746-1.031-0.746-1.734c0-0.413,0.094-0.79,0.282-1.131s0.434-0.615,0.738-0.822
			s0.647-0.362,1.028-0.468c0.28-0.074,0.704-0.146,1.27-0.214c1.154-0.138,2.003-0.302,2.548-0.492
			c0.005-0.196,0.008-0.32,0.008-0.373c0-0.582-0.135-0.992-0.405-1.23c-0.365-0.323-0.908-0.484-1.627-0.484
			c-0.672,0-1.168,0.118-1.488,0.353c-0.32,0.236-0.557,0.652-0.71,1.25l-1.397-0.19c0.127-0.598,0.336-1.081,0.627-1.449
			c0.291-0.368,0.711-0.651,1.262-0.85c0.55-0.198,1.188-0.297,1.913-0.297c0.72,0,1.305,0.084,1.754,0.254s0.781,0.382,0.992,0.639
			c0.212,0.256,0.36,0.581,0.445,0.972c0.047,0.244,0.071,0.683,0.071,1.318v1.905c0,1.329,0.03,2.168,0.091,2.521
			c0.061,0.352,0.181,0.689,0.361,1.012h-1.493C344.98,53.167,344.885,52.82,344.843,52.423z M344.724,49.232
			c-0.519,0.212-1.297,0.392-2.334,0.54c-0.587,0.084-1.003,0.18-1.247,0.286c-0.243,0.106-0.431,0.261-0.563,0.464
			c-0.132,0.204-0.198,0.43-0.198,0.679c0,0.381,0.144,0.699,0.433,0.953c0.288,0.254,0.71,0.381,1.266,0.381
			c0.55,0,1.04-0.121,1.469-0.361s0.743-0.57,0.944-0.988c0.154-0.323,0.23-0.799,0.23-1.429V49.232z"/>
		<path fill="#1A140F" d="M360.013,52.09v1.374h-7.692c-0.011-0.344,0.045-0.675,0.167-0.992c0.196-0.524,0.51-1.04,0.941-1.548
			c0.431-0.508,1.055-1.095,1.87-1.762c1.265-1.037,2.12-1.859,2.564-2.465c0.445-0.606,0.667-1.179,0.667-1.719
			c0-0.566-0.203-1.044-0.607-1.433c-0.405-0.389-0.933-0.583-1.583-0.583c-0.688,0-1.239,0.207-1.651,0.619
			c-0.413,0.413-0.622,0.984-0.627,1.715l-1.469-0.151c0.101-1.095,0.479-1.93,1.135-2.504s1.537-0.861,2.644-0.861
			c1.117,0,2,0.31,2.651,0.929s0.977,1.387,0.977,2.302c0,0.466-0.095,0.923-0.286,1.374c-0.19,0.45-0.507,0.923-0.948,1.421
			c-0.442,0.498-1.176,1.18-2.203,2.048c-0.857,0.72-1.408,1.208-1.651,1.465c-0.243,0.257-0.444,0.515-0.603,0.774H360.013z"/>
	</g>
	<path fill="#FFFFFF" stroke="#1A140F" stroke-linecap="round" stroke-linejoin="round" stroke-miterlimit="30" d="M709.337,352.121
		c0,7.694-6.239,13.935-13.936,13.935H577.619c-7.696,0-13.935-6.24-13.935-13.935v-49.878c0-7.697,6.238-13.936,13.935-13.936
		h117.783c7.696,0,13.936,6.238,13.936,13.936V352.121z"/>
	<g>
		<path fill="#1A140F" d="M623.138,331.518V319.88h7.851v1.373h-6.311v3.604h5.462v1.373h-5.462v5.287H623.138z"/>
		<path fill="#1A140F" d="M632.816,321.522v-1.643h1.429v1.643H632.816z M632.816,331.518v-8.431h1.429v8.431H632.816z"/>
		<path fill="#1A140F" d="M636.418,331.518v-8.431h1.278v1.183c0.265-0.413,0.617-0.745,1.056-0.996
			c0.439-0.251,0.939-0.377,1.501-0.377c0.624,0,1.137,0.13,1.536,0.389c0.399,0.26,0.681,0.622,0.846,1.088
			c0.666-0.984,1.534-1.477,2.604-1.477c0.836,0,1.479,0.231,1.929,0.694c0.45,0.463,0.675,1.177,0.675,2.14v5.787h-1.421v-5.311
			c0-0.572-0.046-0.983-0.139-1.234c-0.093-0.252-0.261-0.454-0.504-0.607c-0.244-0.153-0.529-0.23-0.857-0.23
			c-0.593,0-1.085,0.197-1.477,0.592c-0.392,0.394-0.588,1.025-0.588,1.893v4.898h-1.429v-5.478c0-0.635-0.116-1.111-0.35-1.429
			c-0.232-0.318-0.614-0.477-1.143-0.477c-0.402,0-0.774,0.105-1.116,0.317c-0.341,0.212-0.588,0.521-0.742,0.929
			c-0.153,0.408-0.229,0.995-0.229,1.763v4.374H636.418z"/>
	</g>
	<line fill="none" stroke="#1A140F" stroke-miterlimit="10" x1="336.92" y1="79.265" x2="336.92" y2="118.688"/>
	<polygon stroke="#1A140F" stroke-miterlimit="10" points="326.122,117.333 347.719,117.236 337.003,135.989 	"/>
	<rect x="163.709" y="139.658" fill="none" stroke="#1A140F" stroke-miterlimit="10" width="346.423" height="69.876"/>
	<g>
		<path fill="#1A140F" d="M266.845,182.354c-0.789-0.995-1.456-2.159-2-3.493c-0.545-1.334-0.818-2.715-0.818-4.144
			c0-1.26,0.204-2.466,0.611-3.62c0.476-1.339,1.212-2.672,2.207-4.001h1.024c-0.641,1.101-1.064,1.887-1.27,2.358
			c-0.323,0.73-0.577,1.492-0.762,2.286c-0.228,0.99-0.341,1.985-0.341,2.985c0,2.546,0.791,5.089,2.374,7.629H266.845z"/>
		<path fill="#1A140F" d="M269.695,178.932v-11.638h1.58l6.113,9.138v-9.138h1.477v11.638h-1.58l-6.113-9.146v9.146H269.695z"/>
		<path fill="#1A140F" d="M280.738,174.717c0-1.561,0.434-2.718,1.302-3.469c0.725-0.625,1.609-0.937,2.651-0.937
			c1.159,0,2.106,0.379,2.842,1.139c0.735,0.759,1.104,1.809,1.104,3.147c0,1.085-0.163,1.938-0.488,2.56
			c-0.326,0.622-0.799,1.105-1.421,1.449c-0.622,0.344-1.3,0.516-2.036,0.516c-1.18,0-2.134-0.378-2.862-1.135
			S280.738,176.141,280.738,174.717z M282.206,174.717c0,1.08,0.236,1.888,0.707,2.425c0.471,0.537,1.064,0.806,1.778,0.806
			c0.709,0,1.299-0.27,1.771-0.81c0.471-0.54,0.707-1.363,0.707-2.469c0-1.042-0.237-1.833-0.71-2.37
			c-0.474-0.537-1.063-0.806-1.767-0.806c-0.714,0-1.307,0.267-1.778,0.802C282.442,172.83,282.206,173.637,282.206,174.717z"/>
		<path fill="#1A140F" d="M293.431,177.654l0.207,1.262c-0.402,0.085-0.762,0.127-1.08,0.127c-0.519,0-0.921-0.083-1.207-0.246
			c-0.286-0.164-0.487-0.38-0.604-0.647c-0.116-0.268-0.175-0.83-0.175-1.687v-4.851h-1.048v-1.111h1.048v-2.088l1.421-0.857v2.945
			h1.437v1.111h-1.437v4.93c0,0.408,0.025,0.67,0.075,0.786s0.132,0.209,0.246,0.278s0.276,0.103,0.488,0.103
			C292.963,177.709,293.172,177.691,293.431,177.654z"/>
		<path fill="#1A140F" d="M300.33,177.892c-0.529,0.45-1.039,0.768-1.528,0.953s-1.015,0.278-1.576,0.278
			c-0.926,0-1.638-0.226-2.136-0.679s-0.746-1.031-0.746-1.734c0-0.413,0.094-0.79,0.282-1.131s0.434-0.615,0.738-0.822
			s0.647-0.362,1.028-0.468c0.28-0.074,0.704-0.146,1.27-0.214c1.154-0.138,2.003-0.302,2.548-0.492
			c0.005-0.196,0.008-0.32,0.008-0.373c0-0.582-0.135-0.992-0.405-1.23c-0.365-0.323-0.908-0.484-1.627-0.484
			c-0.672,0-1.168,0.118-1.488,0.353c-0.32,0.236-0.557,0.652-0.71,1.25l-1.397-0.19c0.127-0.598,0.336-1.081,0.627-1.449
			c0.291-0.368,0.711-0.651,1.262-0.85c0.55-0.198,1.188-0.297,1.913-0.297c0.72,0,1.305,0.084,1.754,0.254s0.781,0.382,0.992,0.639
			c0.212,0.256,0.36,0.581,0.445,0.972c0.047,0.244,0.071,0.683,0.071,1.318v1.905c0,1.329,0.03,2.168,0.091,2.521
			c0.061,0.352,0.181,0.689,0.361,1.012h-1.493C300.468,178.636,300.372,178.289,300.33,177.892z M300.211,174.701
			c-0.519,0.212-1.297,0.392-2.334,0.54c-0.587,0.084-1.003,0.18-1.247,0.286c-0.243,0.106-0.431,0.261-0.563,0.464
			c-0.132,0.204-0.198,0.43-0.198,0.679c0,0.381,0.144,0.699,0.433,0.953c0.288,0.254,0.71,0.381,1.266,0.381
			c0.55,0,1.04-0.121,1.469-0.361s0.743-0.57,0.944-0.988c0.154-0.323,0.23-0.799,0.23-1.429V174.701z"/>
		<path fill="#1A140F" d="M313.373,178.932h-1.429v-9.105c-0.344,0.328-0.795,0.656-1.354,0.984
			c-0.559,0.328-1.06,0.574-1.504,0.738v-1.381c0.799-0.376,1.498-0.831,2.096-1.366c0.598-0.534,1.021-1.053,1.27-1.556h0.921
			V178.932z"/>
		<path fill="#1A140F" d="M324.947,177.051v-3.191h-3.167v-1.333h3.167v-3.167h1.35v3.167h3.167v1.333h-3.167v3.191H324.947z"/>
		<path fill="#1A140F" d="M336.125,178.932v-11.638h1.58l6.113,9.138v-9.138h1.477v11.638h-1.58l-6.113-9.146v9.146H336.125z"/>
		<path fill="#1A140F" d="M347.168,174.717c0-1.561,0.434-2.718,1.302-3.469c0.725-0.625,1.609-0.937,2.651-0.937
			c1.159,0,2.106,0.379,2.842,1.139c0.735,0.759,1.104,1.809,1.104,3.147c0,1.085-0.163,1.938-0.488,2.56
			c-0.326,0.622-0.799,1.105-1.421,1.449c-0.622,0.344-1.3,0.516-2.036,0.516c-1.18,0-2.134-0.378-2.862-1.135
			S347.168,176.141,347.168,174.717z M348.636,174.717c0,1.08,0.236,1.888,0.707,2.425c0.471,0.537,1.064,0.806,1.778,0.806
			c0.709,0,1.299-0.27,1.771-0.81c0.471-0.54,0.707-1.363,0.707-2.469c0-1.042-0.237-1.833-0.71-2.37
			c-0.474-0.537-1.063-0.806-1.767-0.806c-0.714,0-1.307,0.267-1.778,0.802C348.872,172.83,348.636,173.637,348.636,174.717z"/>
		<path fill="#1A140F" d="M359.861,177.654l0.207,1.262c-0.402,0.085-0.762,0.127-1.08,0.127c-0.519,0-0.921-0.083-1.207-0.246
			c-0.286-0.164-0.487-0.38-0.604-0.647c-0.116-0.268-0.175-0.83-0.175-1.687v-4.851h-1.048v-1.111h1.048v-2.088l1.421-0.857v2.945
			h1.437v1.111h-1.437v4.93c0,0.408,0.025,0.67,0.075,0.786s0.132,0.209,0.246,0.278s0.276,0.103,0.488,0.103
			C359.393,177.709,359.602,177.691,359.861,177.654z"/>
		<path fill="#1A140F" d="M366.76,177.892c-0.529,0.45-1.039,0.768-1.528,0.953s-1.015,0.278-1.576,0.278
			c-0.926,0-1.638-0.226-2.136-0.679s-0.746-1.031-0.746-1.734c0-0.413,0.094-0.79,0.282-1.131s0.434-0.615,0.738-0.822
			s0.647-0.362,1.028-0.468c0.28-0.074,0.704-0.146,1.27-0.214c1.154-0.138,2.003-0.302,2.548-0.492
			c0.005-0.196,0.008-0.32,0.008-0.373c0-0.582-0.135-0.992-0.405-1.23c-0.365-0.323-0.908-0.484-1.627-0.484
			c-0.672,0-1.168,0.118-1.488,0.353c-0.32,0.236-0.557,0.652-0.71,1.25l-1.397-0.19c0.127-0.598,0.336-1.081,0.627-1.449
			c0.291-0.368,0.711-0.651,1.262-0.85c0.55-0.198,1.188-0.297,1.913-0.297c0.72,0,1.305,0.084,1.754,0.254s0.781,0.382,0.992,0.639
			c0.212,0.256,0.36,0.581,0.445,0.972c0.047,0.244,0.071,0.683,0.071,1.318v1.905c0,1.329,0.03,2.168,0.091,2.521
			c0.061,0.352,0.181,0.689,0.361,1.012h-1.493C366.898,178.636,366.802,178.289,366.76,177.892z M366.641,174.701
			c-0.519,0.212-1.297,0.392-2.334,0.54c-0.587,0.084-1.003,0.18-1.247,0.286c-0.243,0.106-0.431,0.261-0.563,0.464
			c-0.132,0.204-0.198,0.43-0.198,0.679c0,0.381,0.144,0.699,0.433,0.953c0.288,0.254,0.71,0.381,1.266,0.381
			c0.55,0,1.04-0.121,1.469-0.361s0.743-0.57,0.944-0.988c0.154-0.323,0.23-0.799,0.23-1.429V174.701z"/>
		<path fill="#1A140F" d="M381.931,177.559v1.374h-7.692c-0.011-0.344,0.045-0.675,0.167-0.992c0.196-0.524,0.51-1.04,0.941-1.548
			c0.431-0.508,1.055-1.095,1.87-1.762c1.265-1.037,2.12-1.859,2.564-2.465c0.445-0.606,0.667-1.179,0.667-1.719
			c0-0.566-0.203-1.044-0.607-1.433c-0.405-0.389-0.933-0.583-1.583-0.583c-0.688,0-1.239,0.207-1.651,0.619
			c-0.413,0.413-0.622,0.984-0.627,1.715l-1.469-0.151c0.101-1.095,0.479-1.93,1.135-2.504s1.537-0.861,2.644-0.861
			c1.117,0,2,0.31,2.651,0.929s0.977,1.387,0.977,2.302c0,0.466-0.095,0.923-0.286,1.374c-0.19,0.45-0.507,0.923-0.948,1.421
			c-0.442,0.498-1.176,1.18-2.203,2.048c-0.857,0.72-1.408,1.208-1.651,1.465c-0.243,0.257-0.444,0.515-0.603,0.774H381.931z"/>
		<path fill="#1A140F" d="M384.797,182.354h-1.024c1.583-2.54,2.374-5.083,2.374-7.629c0-0.995-0.114-1.982-0.341-2.961
			c-0.18-0.794-0.431-1.556-0.754-2.287c-0.207-0.476-0.633-1.27-1.278-2.381h1.024c0.995,1.329,1.731,2.662,2.207,4.001
			c0.408,1.154,0.611,2.36,0.611,3.62c0,1.429-0.274,2.81-0.822,4.144C386.246,180.194,385.58,181.358,384.797,182.354z"/>
		<path fill="#1A140F" d="M392.72,179.13l3.374-12.035h1.143l-3.366,12.035H392.72z"/>
		<path fill="#1A140F" d="M409.938,177.559v1.374h-7.692c-0.011-0.344,0.045-0.675,0.167-0.992c0.196-0.524,0.51-1.04,0.941-1.548
			c0.431-0.508,1.055-1.095,1.87-1.762c1.265-1.037,2.12-1.859,2.564-2.465c0.445-0.606,0.667-1.179,0.667-1.719
			c0-0.566-0.203-1.044-0.607-1.433c-0.405-0.389-0.933-0.583-1.583-0.583c-0.688,0-1.239,0.207-1.651,0.619
			c-0.413,0.413-0.622,0.984-0.627,1.715l-1.469-0.151c0.101-1.095,0.479-1.93,1.135-2.504s1.537-0.861,2.644-0.861
			c1.117,0,2,0.31,2.651,0.929s0.977,1.387,0.977,2.302c0,0.466-0.095,0.923-0.286,1.374c-0.19,0.45-0.507,0.923-0.948,1.421
			c-0.442,0.498-1.176,1.18-2.203,2.048c-0.857,0.72-1.408,1.208-1.651,1.465c-0.243,0.257-0.444,0.515-0.603,0.774H409.938z"/>
	</g>
	<line fill="none" stroke="#1A140F" stroke-miterlimit="10" x1="336.92" y1="210.492" x2="336.92" y2="249.915"/>
	<polygon stroke="#1A140F" stroke-miterlimit="10" points="326.122,248.561 347.719,248.464 337.003,267.216 	"/>
	<path fill-rule="evenodd" clip-rule="evenodd" fill="none" stroke="#000000" stroke-miterlimit="10" d="M444.779,318.651
		c0.094,14.008,0.01,28.018,0.101,42.024c0.012,1.734-0.556,2.304-3.087,2.286c-20.629-0.139-41.043,1.403-60.991,5.195
		c-11.923,2.268-23.669,5.08-35.326,7.997c-17.815,4.459-35.877,8.111-54.858,7.954c-10.538-0.088-21.114-0.924-31.568-1.965
		c-8.602-0.858-17.041-2.551-25.575-3.796c-1.872-0.271-2.419-0.9-2.417-2.225c0.039-34.891,0.043-69.783-0.003-104.675
		c-0.002-1.565,0.601-2.091,2.863-2.09c69.304,0.037,138.607,0.039,207.912-0.016c2.586-0.001,3.057,0.645,3.046,2.329
		c-0.08,13.751-0.004,27.503-0.092,41.256C444.771,314.59,444.766,316.853,444.779,318.651z"/>
	<g>
		<path fill="#1A140F" d="M317.032,331.064v-11.638h2.318l2.754,8.24c0.254,0.768,0.439,1.342,0.556,1.723
			c0.132-0.424,0.339-1.045,0.62-1.866l2.786-8.097h2.072v11.638h-1.485v-9.74l-3.382,9.74h-1.389l-3.366-9.907v9.907H317.032z"/>
		<path fill="#1A140F" d="M336.212,328.35l1.477,0.183c-0.233,0.862-0.665,1.532-1.294,2.008c-0.63,0.477-1.435,0.715-2.414,0.715
			c-1.233,0-2.211-0.38-2.933-1.139c-0.723-0.76-1.084-1.825-1.084-3.195c0-1.419,0.365-2.52,1.096-3.303s1.678-1.175,2.842-1.175
			c1.127,0,2.048,0.384,2.763,1.15c0.715,0.768,1.072,1.848,1.072,3.239c0,0.085-0.002,0.212-0.008,0.381h-6.288
			c0.053,0.927,0.315,1.636,0.786,2.128s1.059,0.738,1.762,0.738c0.524,0,0.971-0.138,1.342-0.413
			C335.702,329.393,335.995,328.953,336.212,328.35z M331.521,326.039h4.708c-0.063-0.709-0.244-1.241-0.54-1.596
			c-0.456-0.55-1.045-0.825-1.771-0.825c-0.656,0-1.208,0.22-1.655,0.659C331.815,324.716,331.568,325.304,331.521,326.039z
			 M333.061,321.586l1.056-2.223h1.874l-1.746,2.223H333.061z"/>
		<path fill="#1A140F" d="M344.953,331.064v-1.063c-0.535,0.836-1.321,1.254-2.358,1.254c-0.672,0-1.29-0.186-1.854-0.556
			c-0.564-0.37-1-0.888-1.31-1.552s-0.464-1.428-0.464-2.29c0-0.842,0.14-1.605,0.421-2.291c0.28-0.685,0.701-1.21,1.262-1.575
			s1.188-0.548,1.881-0.548c0.508,0,0.96,0.107,1.357,0.321s0.72,0.493,0.969,0.838v-4.176h1.421v11.638H344.953z M340.436,326.857
			c0,1.079,0.228,1.887,0.683,2.421s0.992,0.802,1.611,0.802c0.625,0,1.155-0.255,1.592-0.766s0.655-1.29,0.655-2.339
			c0-1.153-0.223-2-0.667-2.54c-0.445-0.54-0.992-0.81-1.644-0.81c-0.635,0-1.166,0.26-1.591,0.778
			C340.648,324.923,340.436,325.74,340.436,326.857z"/>
		<path fill="#1A140F" d="M348.533,321.069v-1.643h1.429v1.643H348.533z M348.533,331.064v-8.431h1.429v8.431H348.533z"/>
		<path fill="#1A140F" d="M357.638,330.024c-0.529,0.45-1.039,0.768-1.528,0.953c-0.49,0.185-1.015,0.277-1.576,0.277
			c-0.926,0-1.638-0.227-2.136-0.679s-0.746-1.03-0.746-1.734c0-0.413,0.094-0.79,0.282-1.132c0.188-0.341,0.434-0.615,0.738-0.821
			s0.647-0.362,1.028-0.469c0.28-0.073,0.704-0.146,1.27-0.214c1.154-0.138,2.003-0.302,2.548-0.492
			c0.005-0.195,0.008-0.32,0.008-0.373c0-0.582-0.135-0.992-0.405-1.23c-0.365-0.323-0.908-0.484-1.627-0.484
			c-0.672,0-1.168,0.118-1.488,0.354c-0.32,0.235-0.557,0.652-0.71,1.25l-1.397-0.19c0.127-0.598,0.336-1.081,0.627-1.449
			c0.291-0.367,0.711-0.65,1.262-0.849c0.55-0.199,1.188-0.298,1.913-0.298c0.72,0,1.305,0.085,1.754,0.254s0.781,0.382,0.992,0.639
			c0.212,0.257,0.36,0.581,0.445,0.973c0.047,0.243,0.071,0.683,0.071,1.318v1.905c0,1.328,0.03,2.168,0.091,2.521
			c0.061,0.352,0.181,0.688,0.361,1.012h-1.493C357.776,330.769,357.68,330.422,357.638,330.024z M357.519,326.833
			c-0.519,0.212-1.297,0.392-2.334,0.54c-0.587,0.085-1.003,0.18-1.247,0.286c-0.243,0.105-0.431,0.261-0.563,0.464
			c-0.132,0.204-0.198,0.431-0.198,0.679c0,0.381,0.144,0.699,0.433,0.953c0.288,0.254,0.71,0.381,1.266,0.381
			c0.55,0,1.04-0.12,1.469-0.361s0.743-0.57,0.944-0.988c0.154-0.323,0.23-0.799,0.23-1.429V326.833z"/>
	</g>
	<line fill="none" stroke="#1A140F" stroke-miterlimit="10" x1="445.898" y1="326.728" x2="543.331" y2="326.728"/>
	<polygon stroke="#1A140F" stroke-miterlimit="10" points="541.976,337.526 541.878,315.929 560.631,326.645 	"/>
</g>
</svg>
