<?xml version="1.0" encoding="utf-8"?>
<!-- Generator: Adobe Illustrator 16.0.0, SVG Export Plug-In . SVG Version: 6.00 Build 0)  -->
<!DOCTYPE svg PUBLIC "-//W3C//DTD SVG 1.1//EN" "http://www.w3.org/Graphics/SVG/1.1/DTD/svg11.dtd">
<svg version="1.1" id="Layer_1" xmlns="http://www.w3.org/2000/svg" xmlns:xlink="http://www.w3.org/1999/xlink" x="0px" y="0px"
	 width="100px" height="100px" viewBox="0 0 100 100" enable-background="new 0 0 100 100" xml:space="preserve">
<g id="npm">
	<path fill-rule="evenodd" clip-rule="evenodd" d="M0,99.999C0,66.668,0,33.334,0,0c104.166,0-4.168,0,100,0
		c0,33.317,0,66.632,0,99.999C99.494,99.999,0,99.999,0,99.999z M69.361,33.446c0,0.404,0,0.727,0,1.049c0,16.018,0,32.032,0,48.047
		c0,0.926,0.005,0.931,0.933,0.931c5.235,0,10.473-0.017,15.71,0.02c0.737,0,0.922-0.188,0.922-0.892
		c-0.021-21.695-0.016-43.39-0.016-65.085c0-0.27,0-0.542,0-0.835c-23.246,0-46.395,0-69.605,0c0,0.311,0,0.563,0,0.812
		c0,21.696,0,43.39,0,65.085c0,0.892,0.002,0.896,0.95,0.896c10.908,0,21.816,0,32.724-0.005c1.321,0,1.174,0.147,1.174-1.097
		c0.004-15.991,0.004-31.985,0.004-47.976c0-0.314,0-0.628,0-0.95C57.933,33.446,63.596,33.446,69.361,33.446z"/>
</g>
<g id="twitter" display="none">
	<path display="inline" d="M0.942,79.512c0,0.514,0.255,0.973,0.767,1.381c0.853,0.58,2.368,1.435,4.547,2.557
		c8.313,4.295,17.034,6.438,26.164,6.438c11.378,0,21.717-2.93,31.02-8.785c4.432-2.797,8.361-6.158,11.807-10.097
		c3.438-3.938,6.174-8.04,8.197-12.313c2.027-4.273,3.543-8.562,4.552-12.854c1.005-4.293,1.474-8.466,1.403-12.52V31.53
		c3.983-2.861,7.104-6.132,9.354-9.813c0.204-0.409,0.311-0.715,0.311-0.92c0-0.443-0.17-0.834-0.515-1.175
		c-0.341-0.34-0.729-0.511-1.175-0.511c-0.239,0-0.646,0.136-1.229,0.408c-0.408,0.137-0.91,0.308-1.51,0.512
		c-0.596,0.205-1.104,0.383-1.531,0.536c-0.428,0.152-0.705,0.247-0.845,0.28c0.888-0.987,1.808-2.324,2.761-4.011
		s1.435-2.921,1.435-3.705c0-0.442-0.173-0.826-0.515-1.149c-0.34-0.324-0.748-0.486-1.228-0.486c-0.271,0-0.546,0.085-0.815,0.256
		c-3.887,2.078-7.514,3.492-10.887,4.241c-4.121-3.917-9.045-5.876-14.769-5.876c-5.858,0-10.853,2.044-14.974,6.132
		c-4.125,4.088-6.186,9.028-6.186,14.819c0,1.021,0.068,1.856,0.205,2.504c-5.758-0.479-11.311-1.857-16.659-4.14
		c-5.348-2.283-10.151-5.349-14.41-9.197c-0.987-0.954-2.896-2.947-5.724-5.979c-0.409-0.409-0.886-0.613-1.431-0.613
		c-0.409,0-0.835,0.272-1.278,0.817C6.9,15.789,6.201,17.416,5.69,19.34c-0.512,1.925-0.768,3.808-0.768,5.646
		c0,5.075,1.584,9.505,4.752,13.286l-1.48-0.717c-0.853-0.375-1.482-0.562-1.892-0.562c-0.579,0-1.064,0.17-1.457,0.511
		c-0.392,0.341-0.587,0.783-0.587,1.329c0,3.577,0.919,6.967,2.76,10.169c1.84,3.204,4.325,5.758,7.46,7.667l-0.613-0.104
		c-0.068,0-0.162-0.02-0.281-0.055c-0.119-0.031-0.213-0.059-0.281-0.074c-0.067-0.02-0.12-0.022-0.152-0.022
		c-0.443,0-0.826,0.17-1.15,0.512c-0.324,0.343-0.485,0.718-0.485,1.123c0,0.035,0.035,0.226,0.104,0.563
		c1.158,3.543,3.083,6.55,5.773,9.021c2.69,2.472,5.843,4.13,9.453,4.981c-5.927,3.646-12.469,5.469-19.622,5.469
		c-0.478,0-1.243-0.053-2.3-0.152c-1.431-0.065-2.214-0.104-2.351-0.104c-0.443,0-0.826,0.172-1.15,0.511
		C1.104,78.677,0.942,79.066,0.942,79.512L0.942,79.512z"/>
</g>
<g id="linkedin" display="none">
	<path display="inline" d="M1.721,14.581c0-3.107,1.087-5.67,3.263-7.69c2.175-2.019,5.002-3.028,8.48-3.028
		c3.418,0,6.184,0.995,8.296,2.981c2.174,2.051,3.261,4.724,3.261,8.017c0,2.982-1.056,5.468-3.168,7.456
		c-2.175,2.051-5.032,3.075-8.574,3.075h-0.094c-3.418,0-6.183-1.024-8.296-3.075C2.777,20.266,1.721,17.687,1.721,14.581z
		 M2.933,96.136V33.874h20.691v62.262H2.933z M35.088,96.136h20.691V61.37c0-2.177,0.25-3.854,0.746-5.033
		c0.871-2.11,2.188-3.896,3.961-5.356c1.771-1.459,3.994-2.189,6.664-2.189c6.961,0,10.438,4.689,10.438,14.074v33.271h20.689
		V60.438c0-9.193-2.174-16.169-6.522-20.922c-4.351-4.753-10.098-7.13-17.243-7.13c-8.016,0-14.26,3.448-18.732,10.347v0.187h-0.094
		l0.094-0.187v-8.854H35.088c0.126,1.988,0.188,8.171,0.188,18.549C35.275,62.799,35.214,77.37,35.088,96.136z"/>
</g>
<g id="facebook" display="none">
	<path display="inline" fill="#020201" d="M42.278,6.489c3.783-3.604,9.164-4.82,14.242-4.973C61.889,1.469,67.256,1.499,72.623,1.5
		c0.021,5.664,0.023,11.33-0.001,16.994c-3.47-0.006-6.938,0.008-10.411-0.006c-2.197-0.138-4.459,1.529-4.855,3.711
		c-0.057,3.791-0.021,7.582-0.021,11.372c5.091,0.021,10.181-0.007,15.271,0.012c-0.373,5.483-1.056,10.939-1.853,16.376
		c-4.495,0.042-8.993-0.004-13.485,0.024c-0.041,16.169,0.021,32.337-0.031,48.508c-6.678,0.026-13.356-0.015-20.032,0.019
		c-0.126-16.17,0.01-32.353-0.07-48.524c-3.256-0.034-6.516,0.023-9.771-0.027c0.013-5.436,0.004-10.872,0.006-16.307
		c3.255-0.039,6.512,0.009,9.767-0.023c0.101-5.284-0.099-10.576,0.104-15.855C37.56,13.59,39.152,9.377,42.278,6.489z"/>
</g>
<g id="github" display="none">
	<path display="inline" d="M87.217,10c-2.652-0.039-8.82,0.862-19.119,7.755c-5.613-1.403-11.586-2.095-17.564-2.095
		c-6.583,0-13.235,0.835-19.438,2.538C16.307,8.111,9.78,10.178,9.78,10.178C5.52,20.833,8.151,28.722,8.951,30.681
		c-5.007,5.405-8.064,12.307-8.064,20.764c0,6.388,0.728,12.113,2.502,17.096c0.1,0.384,0.067,0.298,0.233,0.627
		c0.391,1.031,0.826,2.031,1.315,2.997c0.167,0.347,0.319,0.604,0.319,0.604c4.991,9.307,14.832,15.313,32.339,17.203L64.075,90
		c18.67-1.852,27.63-7.88,31.759-17.246l0.264-0.611c0.395-0.94,0.73-1.93,1.666-5.244c0.932-3.313,1.35-9.053,1.35-15.453
		c0-9.179-3.444-16.524-9.045-22.113c0.979-3.158,2.283-10.173-1.311-19.152C88.759,10.176,88.256,10.017,87.217,10L87.217,10z
		 M66.352,43.69c4.313-0.01,8.004,0.73,10.775,3.64v0.002c3.471,3.645,5.499,8.042,5.499,12.783
		c0,22.133-14.233,22.734-31.792,22.734c-17.561,0-31.792-3.066-31.792-22.734c0-4.709,2-9.082,5.427-12.71
		c5.717-6.047,15.39-2.846,26.364-2.846C56.468,44.56,61.762,43.701,66.352,43.69L66.352,43.69z M33.646,50.208
		c-3.653,0-6.615,4.94-6.615,11.037c0,6.096,2.961,11.037,6.615,11.037c3.653,0,6.614-4.941,6.614-11.037
		C40.259,55.148,37.298,50.212,33.646,50.208L33.646,50.208z M69.139,50.208c-3.652,0-6.613,4.94-6.613,11.037
		c0,6.096,2.961,11.037,6.613,11.037s6.613-4.941,6.613-11.037C75.752,55.148,72.791,50.212,69.139,50.208L69.139,50.208z"/>
</g>
</svg>
